# xmcd CD database file
#
# Track frame offsets:
#	150
#	17690
#	35657
#	51300
#	73930
#	92807
#	110282
#	130220
#	150215
#	165717
#	181122
#	200872
#	222885
#	239925
#
# Disc length: 3480 seconds
#
# Revision: 1
# Processed by: cddbd v1.5.2PL0 Copyright (c) Steve Scherf et al.
# Submitted via: CDex 1.70beta2
#
DISCID=ca0d960e
DTITLE=Various Artist - New Music Best Collection 12
DYEAR=1991
DGENRE=J-POP(J)
TTITLE0=もんたよしのり＆大橋純子/夏女ソニア
TTITLE1=もんた＆ブラザーズ/ダンシング・オールナイト
TTITLE2=もんた＆ブラザーズ/DESIRE
TTITLE3=伊藤敏博/サヨナラ模様
TTITLE4=大橋純子＆実乃家セントラル・ステイション/サファリ・ナイト
TTITLE5=大橋純子/たそがれマイ・ラブ
TTITLE6=内藤やす子/六本木ララバイ
TTITLE7=あみん/待つわ
TTITLE8=石川セリ/キ・サ・ラ恋人
TTITLE9=石川セリ/彩・夏・夢（いろ、なつ、ゆめ）
TTITLE10=桃井かおり/バイバイ子守唄（ララバイ）
TTITLE11=沢田聖子/あなたからＦ.O.
TTITLE12=大橋純子＆実乃家セントラル・ステイション/シンプル・ラブ
TTITLE13=大橋純子/シルエット・ロマンス
EXTD=YEAR: 1991
EXTT0=
EXTT1=
EXTT2=
EXTT3=
EXTT4=
EXTT5=
EXTT6=
EXTT7=
EXTT8=
EXTT9=
EXTT10=
EXTT11=
EXTT12=
EXTT13=
PLAYORDER=
